inDegrees=yes
name=ik_Xsens_quaternion
DataType=double
version=3
OpenSimVersion=4.4-2022-07-23-0e9fedc
endheader
time	pelvis_tilt	pelvis_list	pelvis_rotation	pelvis_tx	pelvis_ty	pelvis_tz	hip_flexion_r	hip_adduction_r	hip_rotation_r	knee_angle_r	knee_angle_r_beta	ankle_angle_r	subtalar_angle_r	mtp_angle_r	hip_flexion_l	hip_adduction_l	hip_rotation_l	knee_angle_l	knee_angle_l_beta	ankle_angle_l	subtalar_angle_l	mtp_angle_l	lumbar_extension	lumbar_bending	lumbar_rotation	arm_flex_r	arm_add_r	arm_rot_r	elbow_flex_r	pro_sup_r	wrist_flex_r	wrist_dev_r	arm_flex_l	arm_add_l	arm_rot_l	elbow_flex_l	pro_sup_l	wrist_flex_l	wrist_dev_l
34.76666666666667	-1.204327317659634e-43	-2.758691436281349e-33	4.014424392198779e-44	5.739718509874451e-42	0.93	-1.434929627468613e-42	4.594144125593695e-49	1.027692644402887e-41	0	2.426570649309934e-20	1.422281457735344e-23	8.418858142948453e-38	-2.525657442884536e-37	-1.077613842297402e-35	-3.083077933208662e-41	1.43567003924803e-50	-6.577232924178479e-40	2.426570649309934e-20	4.027836165178937e-23	1.683771628589691e-37	-1.926923708255414e-42	6.465683053784412e-35	-1.204327317659634e-43	1.683771628589691e-37	-3.010818294149084e-44	3.407759055927314e-07	8.786028208007274e-05	-1.628611231519974e-05	-1.608463847123889e-05	1.600885093979168e-05	-6.31414360721134e-38	-4.310455369189608e-35	-295.7196586071043	-22.69680708654352	-351.0688315435096	7.318450761446273	-13.72335242667294	1.284615805503609e-42	1.010262977153814e-36
34.78333333333333	-7.92090524363884e-26	2.16532522510689e-19	-4.948775144069015e-26	-8.105657076729227e-19	0.93	7.827912166306539e-29	2.492191774312828e-26	1.664796334617184e-18	1.279012514228073e-19	0	-1.402053457695685e-19	-1.69770305091142e-20	-4.177431777110691e-24	2.761614459779649e-18	3.063332299945184e-20	-4.236107700068844e-16	1.509155248520251e-15	0	-1.461392609971918e-19	2.878661539407754e-21	7.099493735441941e-25	9.316361304295116e-19	8.959537665225531e-17	-1.049286051252424e-16	6.703996526645078e-15	3.407759055927315e-07	8.786028208007307e-05	-1.628611231520031e-05	-1.60846384712389e-05	1.600885093979177e-05	-1.00842594282101e-21	-1.980974389696255e-21	-295.7478902249689	-22.75363700053181	-351.0192390407942	7.431827311268616	-13.83262262272063	-4.830852050925065e-22	5.585637677720926e-21
34.8	-1.288889750673009e-33	-4.699023820437639e-32	-1.004464646955574e-32	-3.526483052466863e-38	0.93	4.105366594701613e-48	-7.48198469489576e-35	6.31414360721134e-38	5.261786339342783e-39	2.426570649309934e-20	-9.235742471880995e-23	-8.404519775173745e-35	-1.605769756879511e-43	1.262828721442268e-37	-5.268034710620753e-35	-1.616420763446103e-35	6.465683053784412e-35	2.426570649309934e-20	-1.928595272984557e-23	-2.733086926230815e-35	3.010818294149084e-44	4.209429071474227e-38	-3.193778025108925e-32	3.327132738093229e-33	-6.034637516865451e-34	3.407759055927315e-07	8.786028208007307e-05	-1.628611231520031e-05	-1.60846384712389e-05	1.600885093979177e-05	-4.110770577611549e-41	-8.756516838193466e-35	-295.7397761411725	-22.80346839194238	-351.024253479792	7.449250377444677	-13.82827153220264	-2.055385288805775e-41	-8.148731186752443e-35
34.81666666666666	-5.608086090812616e-53	-1.794587549060037e-51	-4.486468872650093e-52	-1.274473528905962e-57	0.93	1.483682460274969e-67	4.594144125593695e-49	2.281936072107998e-57	2.139315067601248e-58	2.426570649309934e-20	6.698540694289002e-23	-3.505053806757885e-54	-6.528671470951075e-63	4.563872144215996e-57	4.594144125593695e-49	-5.841756344596475e-55	2.33670253783859e-54	2.426570649309934e-20	-7.170135788172059e-23	-1.168351268919295e-54	1.088111911825179e-63	1.711452054080999e-57	-1.196391699373358e-51	1.495489624216698e-52	-2.804043045406308e-53	3.407759055927315e-07	8.786028208007307e-05	-1.628611231520031e-05	-1.60846384712389e-05	1.600885093979177e-05	-1.671339896563475e-60	-3.505053806757885e-54	-295.7366209330407	-22.84225124888031	-351.0473060240447	7.46832416040134	-13.8361147335903	-8.356699482817376e-61	-3.505053806757885e-54
34.83333333333334	0	0	0	0	0.93	0	0	0	0	0	0	0	0	0	0	0	0	0	4.70197740328915e-38	0	0	0	0	0	0	3.407759055927315e-07	8.786028208007307e-05	-1.628611231520031e-05	-1.60846384712389e-05	1.600885093979177e-05	0	0	-295.7529006690324	-22.8682146455297	-351.0648352334485	7.523551158616193	-13.87840548907455	0	0
34.85	0	0	0	0	0.93	0	0	0	0	0	-5.877471754111438e-39	0	0	0	0	0	0	0	-5.877471754111438e-39	0	0	0	0	0	0	3.407759055927315e-07	8.786028208007307e-05	-1.628611231520031e-05	-1.60846384712389e-05	1.600885093979177e-05	0	0	-295.7534864826413	-22.9088497145885	-351.0613065472247	7.56004054474352	-13.92212118915578	0	0
34.86666666666667	0	0	0	0	0.93	0	0	0	0	0	0	0	0	0	0	0	0	0	0	0	0	0	0	0	0	3.407759055927315e-07	8.786028208007307e-05	-1.628611231520031e-05	-1.60846384712389e-05	1.600885093979177e-05	0	0	-295.7846829215928	-22.9715180936968	-351.0370461246054	7.655523012467524	-13.98048315622067	0	0
34.88333333333333	0	0	0	0	0.93	0	0	0	0	0	0	0	0	0	0	0	0	0	0	0	0	0	0	0	0	3.407759055927315e-07	8.786028208007307e-05	-1.628611231520031e-05	-1.60846384712389e-05	1.600885093979177e-05	0	0	-295.8048287719369	-23.02349963509576	-351.0142885464525	7.71837683009166	-14.04611881883908	0	0
34.9	0	0	0	0	0.93	0	0	0	0	0	-4.114230227878006e-38	0	0	0	0	0	0	0	-4.114230227878006e-38	0	0	0	0	0	0	3.407759055927315e-07	8.786028208007307e-05	-1.628611231520031e-05	-1.60846384712389e-05	1.600885093979177e-05	0	0	-295.8351563963761	-23.0614558465957	-350.9892548410676	7.812832105466574	-14.14922268966417	0	0
